<svg width="62" height="62" viewBox="0 0 62 62" fill="none" xmlns="http://www.w3.org/2000/svg">
<path d="M31 16.7143V45.5524M45.2857 31H16.7143M59.5714 50.0476V11.9524C59.5714 9.4265 58.568 7.00408 56.782 5.21802C54.9959 3.43196 52.5735 2.42856 50.0476 2.42856H11.9524C9.4265 2.42856 7.00408 3.43196 5.21802 5.21802C3.43196 7.00408 2.42856 9.4265 2.42856 11.9524V50.0476C2.42856 52.5735 3.43196 54.9959 5.21802 56.782C7.00408 58.568 9.4265 59.5714 11.9524 59.5714H50.0476C52.5735 59.5714 54.9959 58.568 56.782 56.782C58.568 54.9959 59.5714 52.5735 59.5714 50.0476Z" stroke="#CCCCCC" stroke-width="4.7619" stroke-linecap="round" stroke-linejoin="round"/>
</svg>
