<svg width="80" height="46" viewBox="0 0 80 46" fill="none" xmlns="http://www.w3.org/2000/svg">
<path d="M78.2917 9.35417L43.2917 44.4583C42.875 44.875 42.4236 45.1694 41.9375 45.3417C41.4514 45.5167 40.9306 45.6042 40.375 45.6042C39.8195 45.6042 39.2986 45.5167 38.8125 45.3417C38.3264 45.1694 37.875 44.875 37.4583 44.4583L2.35418 9.35417C1.38195 8.38194 0.895844 7.16667 0.895844 5.70833C0.895844 4.25 1.41668 3 2.45834 1.95833C3.50001 0.916668 4.71529 0.395835 6.10418 0.395835C7.49307 0.395835 8.70834 0.916668 9.75001 1.95833L40.375 32.5833L71 1.95833C71.9722 0.986113 73.1695 0.5 74.5917 0.5C76.0167 0.5 77.25 1.02083 78.2917 2.0625C79.3333 3.10417 79.8542 4.31944 79.8542 5.70833C79.8542 7.09722 79.3333 8.3125 78.2917 9.35417Z" fill="#777777"/>
</svg>
