<svg width="67" height="67" viewBox="0 0 67 67" fill="none" xmlns="http://www.w3.org/2000/svg">
<path d="M29.2517 66.6667C28.0712 66.6667 27.0823 66.2667 26.2851 65.4667C25.4851 64.6694 25.0851 63.6806 25.0851 62.5V37.5L0.918397 6.66667C-0.123269 5.27778 -0.278825 3.81945 0.451731 2.29167C1.17951 0.76389 2.44618 0 4.25173 0H62.5851C64.3906 0 65.6587 0.76389 66.3892 2.29167C67.117 3.81945 66.9601 5.27778 65.9184 6.66667L41.7517 37.5V62.5C41.7517 63.6806 41.3531 64.6694 40.5559 65.4667C39.7559 66.2667 38.7656 66.6667 37.5851 66.6667H29.2517Z" fill="#AAAAAA"/>
</svg>
