<svg width="82" height="70" viewBox="0 0 82 70" fill="none" xmlns="http://www.w3.org/2000/svg">
<path d="M75.375 13.125H42.2891L31.625 2.46094C31.047 1.87851 30.3593 1.41639 29.6017 1.10126C28.8441 0.786143 28.0315 0.624272 27.2109 0.625002H6.625C4.9674 0.625002 3.37768 1.28348 2.20558 2.45558C1.03348 3.62769 0.375 5.2174 0.375 6.875V63.3594C0.375 64.9548 1.00879 66.4849 2.13694 67.6131C3.26508 68.7412 4.79518 69.375 6.39063 69.375H75.7266C77.2878 69.3648 78.7821 68.74 79.8861 67.6361C80.99 66.5321 81.6148 65.0378 81.625 63.4766V19.375C81.625 17.7174 80.9665 16.1277 79.7944 14.9556C78.6223 13.7835 77.0326 13.125 75.375 13.125ZM6.625 6.875H27.2109L33.4609 13.125H6.625V6.875ZM50.375 44.375H31.625C30.7962 44.375 30.0013 44.0458 29.4153 43.4597C28.8292 42.8737 28.5 42.0788 28.5 41.25C28.5 40.4212 28.8292 39.6263 29.4153 39.0403C30.0013 38.4542 30.7962 38.125 31.625 38.125H50.375C51.2038 38.125 51.9987 38.4542 52.5847 39.0403C53.1708 39.6263 53.5 40.4212 53.5 41.25C53.5 42.0788 53.1708 42.8737 52.5847 43.4597C51.9987 44.0458 51.2038 44.375 50.375 44.375Z" fill="#7F56DA"/>
</svg>
