<svg width="88" height="90" viewBox="0 0 88 90" fill="none" xmlns="http://www.w3.org/2000/svg">
<path d="M44 29.375C40.9097 29.375 37.8887 30.2914 35.3192 32.0083C32.7497 33.7252 30.747 36.1655 29.5644 39.0206C28.3818 41.8757 28.0723 45.0173 28.6752 48.0483C29.2781 51.0792 30.7663 53.8633 32.9514 56.0485C35.1366 58.2337 37.9208 59.7219 40.9517 60.3248C43.9827 60.9277 47.1243 60.6182 49.9794 59.4356C52.8345 58.253 55.2748 56.2503 56.9917 53.6808C58.7086 51.1113 59.625 48.0903 59.625 45C59.6126 40.8598 57.9625 36.8927 55.0349 33.9651C52.1073 31.0375 48.1402 29.3874 44 29.375ZM77.7344 45C77.7262 46.46 77.6192 47.9178 77.4141 49.3633L86.9238 56.8086C87.338 57.1506 87.6171 57.6287 87.7112 58.1575C87.8053 58.6864 87.7083 59.2314 87.4375 59.6953L78.4414 75.2266C78.1679 75.6863 77.7411 76.0349 77.2359 76.2111C76.7308 76.3872 76.1797 76.3795 75.6797 76.1895L64.498 71.6973C62.1697 73.4902 59.6217 74.9782 56.916 76.125L55.2441 87.9961C55.1506 88.5278 54.8752 89.0106 54.4652 89.3618C54.0552 89.7131 53.5359 89.911 52.9961 89.9219H35.0039C34.4739 89.9116 33.9631 89.7219 33.5548 89.3838C33.1465 89.0458 32.8649 88.5793 32.7559 88.0605L31.084 76.1895C28.3708 75.0559 25.821 73.5656 23.5019 71.7578L12.3203 76.25C11.8205 76.4403 11.2696 76.4482 10.7645 76.2724C10.2593 76.0967 9.83236 75.7485 9.55859 75.2891L0.562493 59.7598C0.291707 59.2959 0.194697 58.7508 0.288798 58.222C0.382899 57.6932 0.661979 57.215 1.07616 56.873L10.5859 49.4277C10.3831 47.9604 10.2761 46.4813 10.2656 45C10.2737 43.54 10.3808 42.0822 10.5859 40.6367L1.07616 33.1914C0.661979 32.8494 0.382899 32.3713 0.288798 31.8425C0.194697 31.3136 0.291707 30.7686 0.562493 30.3047L9.55859 14.7734C9.83206 14.3137 10.2589 13.9651 10.7641 13.7889C11.2692 13.6128 11.8203 13.6205 12.3203 13.8105L23.5019 18.3027C25.8303 16.5098 28.3783 15.0218 31.084 13.875L32.7559 2.00391C32.8494 1.47217 33.1248 0.989424 33.5348 0.638172C33.9448 0.286921 34.4641 0.0889624 35.0039 0.078125H52.9961C53.5261 0.0884405 54.0369 0.278108 54.4452 0.616165C54.8535 0.954222 55.1351 1.4207 55.2441 1.93945L56.916 13.8105C59.6326 14.9433 62.1857 16.4337 64.5078 18.2422L75.6797 13.75C76.1795 13.5597 76.7304 13.5518 77.2355 13.7276C77.7406 13.9033 78.1676 14.2515 78.4414 14.7109L87.4375 30.2422C87.7083 30.7061 87.8053 31.2511 87.7112 31.78C87.6171 32.3088 87.338 32.7869 86.9238 33.1289L77.4141 40.5742C77.6168 42.041 77.7238 43.5193 77.7344 45Z" fill="#7F56DA"/>
</svg>
