<svg width="86" height="88" viewBox="0 0 86 88" fill="none" xmlns="http://www.w3.org/2000/svg">
<path d="M77.375 46.375V41.5938L83.375 36.3438C84.481 35.3689 85.2068 34.0345 85.4241 32.5763C85.6414 31.118 85.3362 29.63 84.5625 28.375L77.1875 15.875C76.6395 14.9258 75.8515 14.1374 74.9026 13.5889C73.9537 13.0405 72.8773 12.7511 71.7812 12.75C71.102 12.7448 70.4265 12.8504 69.7812 13.0625L62.1875 15.625C60.8764 14.7538 59.5088 13.9708 58.0937 13.2813L56.5 5.40625C56.2142 3.96752 55.4315 2.67513 54.2889 1.75532C53.1463 0.835517 51.7166 0.346899 50.25 0.375004H35.625C34.1584 0.346899 32.7287 0.835517 31.5861 1.75532C30.4435 2.67513 29.6608 3.96752 29.375 5.40625L27.7812 13.2813C26.356 13.9706 24.978 14.7536 23.6562 15.625L16.2187 12.9375C15.5665 12.7676 14.8912 12.7043 14.2187 12.75C13.1227 12.7511 12.0463 13.0405 11.0974 13.5889C10.1485 14.1374 9.3605 14.9258 8.8125 15.875L1.4375 28.375C0.70808 29.6281 0.437032 31.0958 0.670775 32.5268C0.904517 33.9577 1.62851 35.2629 2.71875 36.2188L8.625 41.625V46.4063L2.71875 51.6563C1.59771 52.6188 0.853919 53.9473 0.619366 55.4061C0.384814 56.8649 0.67467 58.3596 1.4375 59.625L8.8125 72.125C9.3605 73.0742 10.1485 73.8626 11.0974 74.4111C12.0463 74.9596 13.1227 75.2489 14.2187 75.25C14.898 75.2552 15.5735 75.1497 16.2187 74.9375L23.8125 72.375C25.1236 73.2462 26.4912 74.0292 27.9062 74.7188L29.5 82.5938C29.7858 84.0325 30.5685 85.3249 31.7111 86.2447C32.8537 87.1645 34.2834 87.6531 35.75 87.625H50.5C51.9666 87.6531 53.3963 87.1645 54.5389 86.2447C55.6815 85.3249 56.4642 84.0325 56.75 82.5938L58.3437 74.7188C59.769 74.0294 61.147 73.2464 62.4687 72.375L70.0312 74.9375C70.6765 75.1497 71.352 75.2552 72.0312 75.25C73.1273 75.2489 74.2037 74.9596 75.1526 74.4111C76.1015 73.8626 76.8895 73.0742 77.4375 72.125L84.5625 59.625C85.2919 58.3719 85.563 56.9042 85.3292 55.4732C85.0955 54.0423 84.3715 52.7371 83.2812 51.7813L77.375 46.375ZM71.7812 69L61.0625 65.375C58.5533 67.5003 55.6856 69.1617 52.5937 70.2813L50.375 81.5H35.625L33.4062 70.4063C30.3388 69.2549 27.4866 67.5964 24.9687 65.5L14.2187 69L6.84375 56.5L15.3437 49C14.7659 45.7652 14.7659 42.4536 15.3437 39.2188L6.84375 31.5L14.2187 19L24.9375 22.625C27.4467 20.4997 30.3144 18.8383 33.4062 17.7188L35.625 6.5H50.375L52.5937 17.5938C55.6612 18.7451 58.5134 20.4036 61.0312 22.5L71.7812 19L79.1562 31.5L70.6562 39C71.2341 42.2348 71.2341 45.5464 70.6562 48.7813L79.1562 56.5L71.7812 69Z" fill="#777777"/>
<path d="M43 62.75C39.2916 62.75 35.6665 61.6503 32.5831 59.5901C29.4996 57.5298 27.0964 54.6014 25.6773 51.1753C24.2581 47.7492 23.8868 43.9792 24.6103 40.3421C25.3338 36.7049 27.1195 33.364 29.7418 30.7417C32.364 28.1195 35.7049 26.3337 39.3421 25.6103C42.9792 24.8868 46.7492 25.2581 50.1753 26.6773C53.6014 28.0964 56.5298 30.4996 58.5901 33.5831C60.6503 36.6665 61.75 40.2916 61.75 44C61.7751 46.4693 61.3072 48.9187 60.3738 51.2049C59.4404 53.491 58.0602 55.568 56.3141 57.3141C54.568 59.0602 52.4911 60.4404 50.2049 61.3738C47.9187 62.3072 45.4693 62.7751 43 62.75ZM43 31.5C41.348 31.4615 39.7053 31.7585 38.1713 32.3731C36.6373 32.9877 35.244 33.907 34.0755 35.0755C32.907 36.244 31.9877 37.6373 31.3731 39.1713C30.7585 40.7053 30.4615 42.348 30.5 44C30.4615 45.652 30.7585 47.2947 31.3731 48.8287C31.9877 50.3627 32.907 51.756 34.0755 52.9245C35.244 54.093 36.6373 55.0123 38.1713 55.6269C39.7053 56.2415 41.348 56.5385 43 56.5C44.6521 56.5385 46.2947 56.2415 47.8287 55.6269C49.3627 55.0123 50.756 54.093 51.9245 52.9245C53.093 51.756 54.0124 50.3627 54.6269 48.8287C55.2415 47.2947 55.5385 45.652 55.5 44C55.5385 42.348 55.2415 40.7053 54.6269 39.1713C54.0124 37.6373 53.093 36.244 51.9245 35.0755C50.756 33.907 49.3627 32.9877 47.8287 32.3731C46.2947 31.7585 44.6521 31.4615 43 31.5Z" fill="#777777"/>
</svg>
